<svg xmlns="http://www.w3.org/2000/svg" viewBox="0 0 24 24" fill="currentColor"><path d="M18.164 7.93V5.084a2.198 2.198 0 0 0-2.198-2.198H5.198A2.198 2.198 0 0 0 3 5.084v10.903a2.198 2.198 0 0 0 2.198 2.198h2.197v2.198a.549.549 0 0 0 .928.399l2.504-2.597h5.68a2.198 2.198 0 0 0 2.198-2.198v-.878c.619-.418 1.145-.954 1.532-1.575.386-.622.586-1.327.586-2.06V9.988c0-.733-.2-1.438-.586-2.06a4.38 4.38 0 0 0-1.532-1.575v.001zm-2.746 8.796h-5.68l-.916.95V16.33H5.198V5.084h10.768v9.903c0 .733.2 1.438.586 2.06.387.622.913 1.157 1.532 1.575v.265z"/></svg>
